<svg width="40" height="40" viewBox="0 0 40 40" fill="none" xmlns="http://www.w3.org/2000/svg">
<rect width="40" height="40" rx="20" fill="#24252F"/>
<mask id="path-2-inside-1_743_176" fill="white">
<path d="M16 13.75C15.59 13.75 15.25 13.41 15.25 13V10C15.25 9.59 15.59 9.25 16 9.25C16.41 9.25 16.75 9.59 16.75 10V13C16.75 13.41 16.41 13.75 16 13.75Z"/>
<path d="M24 13.75C23.59 13.75 23.25 13.41 23.25 13V10C23.25 9.59 23.59 9.25 24 9.25C24.41 9.25 24.75 9.59 24.75 10V13C24.75 13.41 24.41 13.75 24 13.75Z"/>
<path d="M16.5 22.5C16.37 22.5 16.24 22.47 16.12 22.42C15.99 22.37 15.89 22.3 15.79 22.21C15.61 22.02 15.5 21.77 15.5 21.5C15.5 21.37 15.53 21.24 15.58 21.12C15.63 21 15.7 20.89 15.79 20.79C15.89 20.7 15.99 20.63 16.12 20.58C16.48 20.43 16.93 20.51 17.21 20.79C17.39 20.98 17.5 21.24 17.5 21.5C17.5 21.56 17.49 21.63 17.48 21.7C17.47 21.76 17.45 21.82 17.42 21.88C17.4 21.94 17.37 22 17.33 22.06C17.3 22.11 17.25 22.16 17.21 22.21C17.02 22.39 16.76 22.5 16.5 22.5Z"/>
<path d="M20 22.5C19.87 22.5 19.74 22.47 19.62 22.42C19.49 22.37 19.39 22.3 19.29 22.21C19.11 22.02 19 21.77 19 21.5C19 21.37 19.03 21.24 19.08 21.12C19.13 21 19.2 20.89 19.29 20.79C19.39 20.7 19.49 20.63 19.62 20.58C19.98 20.42 20.43 20.51 20.71 20.79C20.89 20.98 21 21.24 21 21.5C21 21.56 20.99 21.63 20.98 21.7C20.97 21.76 20.95 21.82 20.92 21.88C20.9 21.94 20.87 22 20.83 22.06C20.8 22.11 20.75 22.16 20.71 22.21C20.52 22.39 20.26 22.5 20 22.5Z"/>
<path d="M23.5 22.5C23.37 22.5 23.24 22.47 23.12 22.42C22.99 22.37 22.89 22.3 22.79 22.21C22.75 22.16 22.71 22.11 22.67 22.06C22.63 22 22.6 21.94 22.58 21.88C22.55 21.82 22.53 21.76 22.52 21.7C22.51 21.63 22.5 21.56 22.5 21.5C22.5 21.24 22.61 20.98 22.79 20.79C22.89 20.7 22.99 20.63 23.12 20.58C23.49 20.42 23.93 20.51 24.21 20.79C24.39 20.98 24.5 21.24 24.5 21.5C24.5 21.56 24.49 21.63 24.48 21.7C24.47 21.76 24.45 21.82 24.42 21.88C24.4 21.94 24.37 22 24.33 22.06C24.3 22.11 24.25 22.16 24.21 22.21C24.02 22.39 23.76 22.5 23.5 22.5Z"/>
<path d="M16.5 26C16.37 26 16.24 25.97 16.12 25.92C16 25.87 15.89 25.8 15.79 25.71C15.61 25.52 15.5 25.26 15.5 25C15.5 24.87 15.53 24.74 15.58 24.62C15.63 24.49 15.7 24.38 15.79 24.29C16.16 23.92 16.84 23.92 17.21 24.29C17.39 24.48 17.5 24.74 17.5 25C17.5 25.26 17.39 25.52 17.21 25.71C17.02 25.89 16.76 26 16.5 26Z"/>
<path d="M20 26C19.74 26 19.48 25.89 19.29 25.71C19.11 25.52 19 25.26 19 25C19 24.87 19.03 24.74 19.08 24.62C19.13 24.49 19.2 24.38 19.29 24.29C19.66 23.92 20.34 23.92 20.71 24.29C20.8 24.38 20.87 24.49 20.92 24.62C20.97 24.74 21 24.87 21 25C21 25.26 20.89 25.52 20.71 25.71C20.52 25.89 20.26 26 20 26Z"/>
<path d="M23.5 26C23.24 26 22.98 25.89 22.79 25.71C22.7 25.62 22.63 25.51 22.58 25.38C22.53 25.26 22.5 25.13 22.5 25C22.5 24.87 22.53 24.74 22.58 24.62C22.63 24.49 22.7 24.38 22.79 24.29C23.02 24.06 23.37 23.95 23.69 24.02C23.76 24.03 23.82 24.05 23.88 24.08C23.94 24.1 24 24.13 24.06 24.17C24.11 24.2 24.16 24.25 24.21 24.29C24.39 24.48 24.5 24.74 24.5 25C24.5 25.26 24.39 25.52 24.21 25.71C24.02 25.89 23.76 26 23.5 26Z"/>
<path d="M28.5 17.84H11.5C11.09 17.84 10.75 17.5 10.75 17.09C10.75 16.68 11.09 16.34 11.5 16.34H28.5C28.91 16.34 29.25 16.68 29.25 17.09C29.25 17.5 28.91 17.84 28.5 17.84Z"/>
<path d="M24 30.75H16C12.35 30.75 10.25 28.65 10.25 25V16.5C10.25 12.85 12.35 10.75 16 10.75H24C27.65 10.75 29.75 12.85 29.75 16.5V25C29.75 28.65 27.65 30.75 24 30.75ZM16 12.25C13.14 12.25 11.75 13.64 11.75 16.5V25C11.75 27.86 13.14 29.25 16 29.25H24C26.86 29.25 28.25 27.86 28.25 25V16.5C28.25 13.64 26.86 12.25 24 12.25H16Z"/>
</mask>
<path d="M16 13.75C15.59 13.75 15.25 13.41 15.25 13V10C15.25 9.59 15.59 9.25 16 9.25C16.41 9.25 16.75 9.59 16.75 10V13C16.75 13.41 16.41 13.75 16 13.75Z" stroke="#00FFA5" stroke-width="2" mask="url(#path-2-inside-1_743_176)"/>
<path d="M24 13.75C23.59 13.75 23.25 13.41 23.25 13V10C23.25 9.59 23.59 9.25 24 9.25C24.41 9.25 24.75 9.59 24.75 10V13C24.75 13.41 24.41 13.75 24 13.75Z" stroke="#00FFA5" stroke-width="2" mask="url(#path-2-inside-1_743_176)"/>
<path d="M16.5 22.5C16.37 22.5 16.24 22.47 16.12 22.42C15.99 22.37 15.89 22.3 15.79 22.21C15.61 22.02 15.5 21.77 15.5 21.5C15.5 21.37 15.53 21.24 15.58 21.12C15.63 21 15.7 20.89 15.79 20.79C15.89 20.7 15.99 20.63 16.12 20.58C16.48 20.43 16.93 20.51 17.21 20.79C17.39 20.98 17.5 21.24 17.5 21.5C17.5 21.56 17.49 21.63 17.48 21.7C17.47 21.76 17.45 21.82 17.42 21.88C17.4 21.94 17.37 22 17.33 22.06C17.3 22.11 17.25 22.16 17.21 22.21C17.02 22.39 16.76 22.5 16.5 22.5Z" stroke="#00FFA5" stroke-width="2" mask="url(#path-2-inside-1_743_176)"/>
<path d="M20 22.5C19.87 22.5 19.74 22.47 19.62 22.42C19.49 22.37 19.39 22.3 19.29 22.21C19.11 22.02 19 21.77 19 21.5C19 21.37 19.03 21.24 19.08 21.12C19.13 21 19.2 20.89 19.29 20.79C19.39 20.7 19.49 20.63 19.62 20.58C19.98 20.42 20.43 20.51 20.71 20.79C20.89 20.98 21 21.24 21 21.5C21 21.56 20.99 21.63 20.98 21.7C20.97 21.76 20.95 21.82 20.92 21.88C20.9 21.94 20.87 22 20.83 22.06C20.8 22.11 20.75 22.16 20.71 22.21C20.52 22.39 20.26 22.5 20 22.5Z" stroke="#00FFA5" stroke-width="2" mask="url(#path-2-inside-1_743_176)"/>
<path d="M23.5 22.5C23.37 22.5 23.24 22.47 23.12 22.42C22.99 22.37 22.89 22.3 22.79 22.21C22.75 22.16 22.71 22.11 22.67 22.06C22.63 22 22.6 21.94 22.58 21.88C22.55 21.82 22.53 21.76 22.52 21.7C22.51 21.63 22.5 21.56 22.5 21.5C22.5 21.24 22.61 20.98 22.79 20.79C22.89 20.7 22.99 20.63 23.12 20.58C23.49 20.42 23.93 20.51 24.21 20.79C24.39 20.98 24.5 21.24 24.5 21.5C24.5 21.56 24.49 21.63 24.48 21.7C24.47 21.76 24.45 21.82 24.42 21.88C24.4 21.94 24.37 22 24.33 22.06C24.3 22.11 24.25 22.16 24.21 22.21C24.02 22.39 23.76 22.5 23.5 22.5Z" stroke="#00FFA5" stroke-width="2" mask="url(#path-2-inside-1_743_176)"/>
<path d="M16.5 26C16.37 26 16.24 25.97 16.12 25.92C16 25.87 15.89 25.8 15.79 25.71C15.61 25.52 15.5 25.26 15.5 25C15.5 24.87 15.53 24.74 15.58 24.62C15.63 24.49 15.7 24.38 15.79 24.29C16.16 23.92 16.84 23.92 17.21 24.29C17.39 24.48 17.5 24.74 17.5 25C17.5 25.26 17.39 25.52 17.21 25.71C17.02 25.89 16.76 26 16.5 26Z" stroke="#00FFA5" stroke-width="2" mask="url(#path-2-inside-1_743_176)"/>
<path d="M20 26C19.74 26 19.48 25.89 19.29 25.71C19.11 25.52 19 25.26 19 25C19 24.87 19.03 24.74 19.08 24.62C19.13 24.49 19.2 24.38 19.29 24.29C19.66 23.92 20.34 23.92 20.71 24.29C20.8 24.38 20.87 24.49 20.92 24.62C20.97 24.74 21 24.87 21 25C21 25.26 20.89 25.52 20.71 25.71C20.52 25.89 20.26 26 20 26Z" stroke="#00FFA5" stroke-width="2" mask="url(#path-2-inside-1_743_176)"/>
<path d="M23.5 26C23.24 26 22.98 25.89 22.79 25.71C22.7 25.62 22.63 25.51 22.58 25.38C22.53 25.26 22.5 25.13 22.5 25C22.5 24.87 22.53 24.74 22.58 24.62C22.63 24.49 22.7 24.38 22.79 24.29C23.02 24.06 23.37 23.95 23.69 24.02C23.76 24.03 23.82 24.05 23.88 24.08C23.94 24.1 24 24.13 24.06 24.17C24.11 24.2 24.16 24.25 24.21 24.29C24.39 24.48 24.5 24.74 24.5 25C24.5 25.26 24.39 25.52 24.21 25.71C24.02 25.89 23.76 26 23.5 26Z" stroke="#00FFA5" stroke-width="2" mask="url(#path-2-inside-1_743_176)"/>
<path d="M28.5 17.84H11.5C11.09 17.84 10.75 17.5 10.75 17.09C10.75 16.68 11.09 16.34 11.5 16.34H28.5C28.91 16.34 29.25 16.68 29.25 17.09C29.25 17.5 28.91 17.84 28.5 17.84Z" stroke="#00FFA5" stroke-width="2" mask="url(#path-2-inside-1_743_176)"/>
<path d="M24 30.75H16C12.35 30.75 10.25 28.65 10.25 25V16.5C10.25 12.85 12.35 10.75 16 10.75H24C27.65 10.75 29.75 12.85 29.75 16.5V25C29.75 28.65 27.65 30.75 24 30.75ZM16 12.25C13.14 12.25 11.75 13.64 11.75 16.5V25C11.75 27.86 13.14 29.25 16 29.25H24C26.86 29.25 28.25 27.86 28.25 25V16.5C28.25 13.64 26.86 12.25 24 12.25H16Z" stroke="#00FFA5" stroke-width="2" mask="url(#path-2-inside-1_743_176)"/>
</svg>
