<svg width="22" height="23" viewBox="0 0 22 23" fill="none" xmlns="http://www.w3.org/2000/svg">
<path d="M8.54062 5.36063C8.4825 5.50688 8.55937 10.7288 8.6775 10.8844C8.79562 11.04 14.0456 12.8231 14.28 12.765C14.5144 12.7069 17.3156 8.29875 17.3156 8.1225C17.3156 7.94625 13.8694 3.69563 13.6931 3.65625C13.5169 3.61687 8.61937 5.16375 8.54062 5.36063ZM20.5387 6.00187C20.5387 6.00187 19.7662 8.5725 19.7662 8.76937C19.7662 8.96438 20.2369 10.0425 20.4525 11.3737C20.6681 12.705 20.355 14.7038 20.4919 14.7825C20.6287 14.8613 21.3075 14.8219 21.3075 14.8219C21.3075 14.8219 21.9619 12.765 21.6862 10.1213C21.4106 7.47563 20.5387 6.00187 20.5387 6.00187ZM14.9662 16.2319C14.8087 16.2469 10.6762 19.7962 10.695 19.8956C10.7137 19.9931 12.3131 22.35 12.3131 22.35C12.3131 22.35 14.3231 22.1906 16.1644 21.1931C18.0056 20.1956 18.705 19.3088 18.705 19.3088C18.705 19.3088 18.96 16.9388 18.8625 16.92C18.7669 16.8975 15.1631 16.2131 14.9662 16.2319ZM1.17562 11.805C1.06875 11.8931 0.45 13.2544 0.27375 14.0194C0.0974999 14.7825 0 15.5081 0 15.5081C0 15.5081 0.470625 16.8694 1.17562 17.8781C2.04937 19.1269 3.18562 20.0081 3.18562 20.0081C3.18562 20.0081 6.89437 18.8775 6.915 18.72C6.93562 18.5625 6.48375 17.1919 6.17062 16.0556C5.8575 14.9194 5.79937 13.6462 5.68125 13.5675C5.56312 13.4888 4.36875 13.1175 3.42937 12.7444C2.49 12.3713 1.29375 11.7075 1.17562 11.805ZM0.0131249 7.07812C0.0131249 7.07812 1.03875 7.965 1.19625 7.965C1.35375 7.965 2.3475 6.64875 3.35062 5.85C4.7025 4.77188 5.36812 4.41937 5.38875 4.2825C5.4075 4.14563 5.99625 0.87375 5.99625 0.87375C5.99625 0.87375 3.82125 1.69687 2.235 3.5175C0.64875 5.33812 0.0131249 7.07812 0.0131249 7.07812ZM11.1056 0C11.1056 0 12.3562 0.643125 12.8119 0.96C13.2675 1.27688 13.9387 1.94813 14.1375 1.96875C14.3344 1.98937 17.055 1.99125 17.055 1.99125C17.055 1.99125 15.8212 1.1475 14.4544 0.66375C12.81 0.080625 11.1056 0 11.1056 0Z" fill="#474C4F"/>
</svg>
